<svg width="308" height="298" viewBox="0 0 308 298" fill="none" xmlns="http://www.w3.org/2000/svg">
<g id="logoanimation" clip-path="url(#clip0)">
<g id="Moving-lid">
<path id="Vector" d="M75.17 91.66L28.07 99.2C28.07 99.2 12.53 94.01 21.95 81.77C21.95 81.77 44.09 84.12 60.1 51.15C60.1 51.15 90.25 45.5 106.73 44.56C106.73 44.56 98.25 -7.73 159.96 4.99C159.96 4.99 169.38 8.29 174.56 30.9L212.73 28.07C212.73 28.07 225.45 26.19 239.58 40.32C239.58 40.32 252.3 47.85 265.49 47.85C265.49 47.85 277.26 50.68 268.79 63.4L218.39 72.4L75.17 91.66Z" stroke="#4FBFD2" stroke-width="6" stroke-miterlimit="10"/>
<path id="Vector_2" d="M126.28 26.89V39.07L152.19 36.31V23.59L126.28 26.89Z" stroke="#4FBFD2" stroke-width="6" stroke-miterlimit="10"/>
</g>
<g id="Gryde">
<g id="Gryde_2">
<path id="Vector_3" d="M42.91 116.39C42.91 116.39 26.91 115.45 26.91 125.81C26.91 136.17 37.28 136.17 37.28 136.17V176.73C37.28 176.73 36.81 183.32 13.28 155.06C13.28 155.06 -0.379961 154.59 3.86004 170.14C8.10004 185.69 37.3101 198.87 37.3101 198.87L38.2501 254.45C38.2501 254.45 37.31 260.1 43.43 260.1C49.55 260.1 266.7 258.22 266.7 258.22C266.7 258.22 270.94 260.1 270.94 252.09V200.63C271.267 199.651 271.821 198.763 272.556 198.039C273.291 197.314 274.187 196.773 275.17 196.46C275.17 196.46 313.8 183.27 302.97 158.78C302.97 158.78 298.73 153.13 293.97 158.78C290.524 163.115 287.377 167.678 284.55 172.44C281.315 176.193 276.761 178.556 271.83 179.04L271.36 137.58C271.36 137.58 290.2 131.46 278.42 118.27C278.42 118.27 271.83 116.39 267.12 118.27" stroke="#4FBFD2" stroke-width="6" stroke-miterlimit="10"/>
</g>
<g id="K&#195;&#184;kkenfabrikken">
<path id="Vector_4" d="M72.11 278.42C72.11 278.42 73.53 288.31 71.64 293.49L73.05 287.84L76.82 293.02L73.53 287.84L81.06 277.95" stroke="#4FBFD2" stroke-width="2" stroke-miterlimit="10"/>
<path id="Vector_5" d="M92.37 279.84L81.54 292.08" stroke="#4FBFD2" stroke-width="2" stroke-miterlimit="10"/>
<path id="Vector_6" d="M90.61 279.83C90.61 279.83 82 271.83 82.48 288.78C82.48 288.78 81.48 291.61 85.3 293.02C89.12 294.43 91.42 287.84 91.42 287.84C91.42 287.84 92.61 281.73 90.61 279.83Z" stroke="#4FBFD2" stroke-width="2" stroke-miterlimit="10"/>
<path id="Vector_7" d="M96.14 279.37V286.43L100.13 292.08L96.61 286.43L103.08 279.37" stroke="#4FBFD2" stroke-width="2" stroke-miterlimit="10"/>
<path id="Vector_8" d="M94.72 292.56L96.14 286.43" stroke="#4FBFD2" stroke-width="2" stroke-miterlimit="10"/>
<path id="Vector_9" d="M106.5 279.37V292.08L106.97 286.9L114.51 280.31" stroke="#4FBFD2" stroke-width="2" stroke-miterlimit="10"/>
<path id="Vector_10" d="M112.05 292.56L107.51 286.43" stroke="#4FBFD2" stroke-width="2" stroke-miterlimit="10"/>
<path id="Vector_11" d="M122.25 285.59L117.79 287.36" stroke="#4FBFD2" stroke-width="2" stroke-miterlimit="10"/>
<path id="Vector_12" d="M123.93 278.9L118.44 279.37L117.33 293.03L118.44 293.5L122.04 291.14" stroke="#4FBFD2" stroke-width="2" stroke-miterlimit="10"/>
<path id="Vector_13" d="M125.26 292.08C127.241 288.454 128.396 284.435 128.64 280.31C128.64 280.31 130.99 289.73 134.29 292.55C137.59 295.37 138.06 285.02 138.06 285.02V279.83" stroke="#4FBFD2" stroke-width="2" stroke-miterlimit="10"/>
<path id="Vector_14" d="M149.95 277.95C149.95 277.95 143.24 276.54 142.77 280.78C142.3 285.02 143.2 292.55 143.2 292.55L143.26 286.47L149.34 285.58" stroke="#4FBFD2" stroke-width="2" stroke-miterlimit="10"/>
<path id="Vector_15" d="M149.83 293.49C149.83 293.49 154.07 283.13 153.13 278.42C155.819 282.769 157.737 287.549 158.8 292.55" stroke="#4FBFD2" stroke-width="2" stroke-miterlimit="10"/>
<path id="Vector_16" d="M157.37 289.26H151.36" stroke="#4FBFD2" stroke-width="2" stroke-miterlimit="10"/>
<path id="Vector_17" d="M161.94 293.49L161.54 285.97L161.2 279.36C161.2 279.36 165.6 277.01 166.67 279.83C166.67 279.83 167.57 282.19 163.41 285.72C163.41 285.72 169.14 285.02 169.61 286.9C169.894 288.019 169.725 289.205 169.14 290.2C169.14 290.2 167.44 293.02 161.94 293.49Z" stroke="#4FBFD2" stroke-width="2" stroke-miterlimit="10"/>
<path id="Vector_18" d="M179.63 293.49L173.85 285.96L172.07 292.55L172.52 285.55L172.91 279.33C172.91 279.33 183.01 278.39 174.91 285.69L173.25 285.55" stroke="#4FBFD2" stroke-width="2" stroke-miterlimit="10"/>
<path id="Vector_19" d="M180.69 293.73L185.59 293.04L183.99 292.56L184.67 279.33L186.88 278.9L181.63 280.07" stroke="#4FBFD2" stroke-width="2" stroke-miterlimit="10"/>
<path id="Vector_20" d="M191.43 279.33L190.81 293.04L191.86 285.96L199.05 279.33L192.9 285.96L200 293.73" stroke="#4FBFD2" stroke-width="2" stroke-miterlimit="10"/>
<path id="Vector_21" d="M203.35 277.73V293.04L203.77 285.73L204.94 285.38L210.66 278.9L205.56 285.38L212.81 293.04" stroke="#4FBFD2" stroke-width="2" stroke-miterlimit="10"/>
<path id="Vector_22" d="M219.07 284.1L214.52 285.14" stroke="#4FBFD2" stroke-width="2" stroke-miterlimit="10"/>
<path id="Vector_23" d="M221.19 278.19L214.65 279.33L214.53 284.89L214.34 293.04L219.07 292.56" stroke="#4FBFD2" stroke-width="2" stroke-miterlimit="10"/>
<path id="Vector_24" d="M222.7 293.04L224.96 280.54L232.03 293.73L232.9 278.9" stroke="#4FBFD2" stroke-width="2" stroke-miterlimit="10"/>
</g>
</g>
<g id="Aalborg">
<path id="Vector_25" d="M58.92 158.31C58.92 158.31 58.98 154.08 58.92 148.38C58.87 137.59 58.5401 121.52 57.0001 118.74C54.6401 114.5 86.63 136.64 88.54 158.31" stroke="#4FBFD2" stroke-width="5" stroke-miterlimit="10"/>
<path id="Vector_26" d="M76.82 137.12L58.96 148.38" stroke="#4FBFD2" stroke-width="5" stroke-miterlimit="10"/>
<path id="Vector_27" d="M90.95 141.82C90.95 141.82 87.19 118.27 81.95 106.97C95.7465 115.014 106.649 127.211 113.1 141.82" stroke="#4FBFD2" stroke-width="5" stroke-miterlimit="10"/>
<path id="Vector_28" d="M89.71 134.93L106.5 129.75" stroke="#4FBFD2" stroke-width="5" stroke-miterlimit="10"/>
<path id="Vector_29" d="M113.15 99.2C113.15 99.2 126.28 137.5 126.28 145.08C126.28 152.66 142.63 142.73 142.63 142.73" stroke="#4FBFD2" stroke-width="5" stroke-miterlimit="10"/>
<path id="Vector_30" d="M142.63 99.2L153.91 142.73C153.91 142.73 176.43 145.44 175.85 132.32C175.27 119.2 152.19 118.2 152.19 118.2C152.19 118.2 163.68 116.84 165.47 99.2C165.47 99.2 150.97 87.19 142.63 99.2Z" stroke="#4FBFD2" stroke-width="5" stroke-miterlimit="10"/>
<path id="Vector_31" d="M183.78 106.97C183.78 106.97 181.86 132.32 190.78 139.9C190.78 139.9 200.67 140.9 204.91 99.2C204.91 99.2 201.61 90.2 190.78 93.86C190.78 93.86 185.6 98.69 180.65 103.77" stroke="#4FBFD2" stroke-width="5" stroke-miterlimit="10"/>
<path id="Vector_32" d="M219.07 103.4L206.35 151.73L213.42 132.35L227.08 148.9L215.78 133.36C215.78 133.36 235.56 133.36 228.49 111.69C228.49 111.73 226.61 104.08 219.07 103.4Z" stroke="#4FBFD2" stroke-width="5" stroke-miterlimit="10"/>
<path id="Vector_33" d="M251.1 157.37L253.91 145.63L256.29 135.7L262.41 137.59L249.22 130.99" stroke="#4FBFD2" stroke-width="5" stroke-miterlimit="10"/>
<path id="Vector_34" d="M256.28 114.03C256.28 114.03 254.87 108.38 248.28 110.74C241.69 113.1 237.91 138.53 237.91 138.53C237.91 138.53 235.56 146.06 244.04 148.89C252.52 151.72 255.14 140.47 255.14 140.47" stroke="#4FBFD2" stroke-width="5" stroke-miterlimit="10"/>
</g>
<g id="Streetfood">
<path id="Vector_35" d="M63.88 180.92C63.88 180.92 45.26 180.45 52.33 197.41C52.33 197.41 50.92 199.29 62.22 204.47C73.52 209.65 67.89 221.73 67.89 221.73C67.89 221.73 61.28 229.43 53.74 223.78C52.912 223.023 52.3338 222.033 52.0819 220.94C51.8301 219.847 51.9166 218.703 52.33 217.66" stroke="#4FBFD2" stroke-width="5" stroke-miterlimit="10"/>
<path id="Vector_36" d="M81.06 226.61L75.41 186.1L64.13 188.21L86.72 182.81" stroke="#4FBFD2" stroke-width="5" stroke-miterlimit="10"/>
<path id="Vector_37" d="M90.54 226.61L86.73 192.12C86.73 192.12 93.03 186.33 98.12 194.46C103.21 202.59 92.43 212.64 92.43 212.64C92.43 212.64 95.68 221.55 103.69 224.32" stroke="#4FBFD2" stroke-width="5" stroke-miterlimit="10"/>
<path id="Vector_38" d="M116.39 184.22L107.01 190.12L115.36 226.61C115.36 226.61 121.57 230.85 126.28 220.96" stroke="#4FBFD2" stroke-width="5" stroke-miterlimit="10"/>
<path id="Vector_39" d="M120.63 201.65L110.94 207.27" stroke="#4FBFD2" stroke-width="5" stroke-miterlimit="10"/>
<path id="Vector_40" d="M134.73 182.33L127.86 188.21C127.86 188.21 129.08 218.6 133.32 223.78C137.56 228.96 144.15 216.25 144.15 216.25" stroke="#4FBFD2" stroke-width="5" stroke-miterlimit="10"/>
<path id="Vector_41" d="M140.41 198.35L129.22 205.87" stroke="#4FBFD2" stroke-width="5" stroke-miterlimit="10"/>
<path id="Vector_42" d="M151.24 223.78V182.33L141.54 180.92C141.54 180.92 157.88 183.27 163.04 180.92" stroke="#4FBFD2" stroke-width="5" stroke-miterlimit="10"/>
<path id="Vector_43" d="M188.93 178.56C188.93 178.56 176.93 173.38 173.49 182.8C170.05 192.22 171.4 225.02 171.4 225.02" stroke="#4FBFD2" stroke-width="5" stroke-miterlimit="10"/>
<path id="Vector_44" d="M182.81 200.23H171.34" stroke="#4FBFD2" stroke-width="5" stroke-miterlimit="10"/>
<path id="Vector_45" d="M194.11 192.73C194.11 192.73 199.76 181.9 204.94 184.26C210.12 186.62 207.3 210.16 207.3 210.16C207.3 210.16 202.12 220.05 195.52 221.94C188.92 223.83 189.58 208.4 189.58 208.4C189.58 208.4 190.1 198.53 192.81 196.34" stroke="#4FBFD2" stroke-width="5" stroke-miterlimit="10"/>
<path id="Vector_46" d="M215.3 219.54C215.3 219.54 226.83 216.25 230.02 202.35C233.21 188.45 230.02 186.47 230.02 186.47C230.02 186.47 225.95 182.83 219.69 190.12C213.43 197.41 205.88 213.89 215.3 219.54Z" stroke="#4FBFD2" stroke-width="5" stroke-miterlimit="10"/>
<path id="Vector_47" d="M242.62 192.22L231.43 226.61C231.43 226.61 246.43 229.91 252.99 219.54C259.55 209.17 255.32 200.23 255.32 200.23C254.044 197.937 252.213 196.002 249.993 194.602C247.774 193.203 245.239 192.384 242.62 192.22Z" stroke="#4FBFD2" stroke-width="5" stroke-miterlimit="10"/>
</g>
</g>
<defs>
<clipPath id="clip0">
<rect width="307.83" height="297.33" fill="white"/>
</clipPath>
</defs>
</svg>
